<?xml version="1.0" standalone="no"?>
<!DOCTYPE svg PUBLIC "-//W3C//DTD SVG 20010904//EN"
 "http://www.w3.org/TR/2001/REC-SVG-20010904/DTD/svg10.dtd">
<svg version="1.0" xmlns="http://www.w3.org/2000/svg"
 width="100.000000pt" height="100.000000pt" viewBox="0 0 900.000000 900.000000"
 preserveAspectRatio="xMidYMid meet">

<g transform="translate(0.000000,900.000000) scale(0.100000,-0.100000)"
fill="#000000" stroke="none">
<path d="M4950 8790 c-30 -16 -69 -43 -85 -59 -52 -50 -125 -264 -125 -364 0
-45 -13 -128 -25 -159 -6 -15 -2 -18 23 -18 24 0 32 -6 40 -29 5 -15 33 -48
61 -72 28 -24 51 -47 51 -51 0 -5 -29 -8 -65 -8 -36 0 -65 -3 -65 -7 0 -7 10
-54 25 -119 4 -16 -1 -23 -18 -28 -12 -3 -30 -18 -39 -33 -9 -15 -34 -45 -55
-65 -34 -33 -51 -40 -146 -62 -101 -23 -112 -28 -175 -79 -37 -30 -77 -58 -90
-61 -32 -10 -51 -55 -60 -139 l-7 -72 -72 1 c-40 1 -120 7 -178 14 -221 27
-454 -7 -612 -89 -74 -39 -80 -45 -118 -114 -26 -46 -67 -98 -115 -144 -119
-116 -132 -123 -251 -135 -65 -6 -128 -19 -167 -34 -200 -78 -347 -107 -548
-108 l-162 -1 14 -27 c14 -27 14 -28 -10 -28 -14 0 -28 -4 -31 -10 -3 -5 -1
-10 6 -10 7 0 9 -3 5 -7 -4 -4 24 -17 61 -28 66 -21 67 -22 43 -35 -13 -7 -55
-13 -95 -13 -38 0 -74 -2 -79 -5 -12 -7 15 -22 44 -22 24 -1 24 -2 4 -10 -27
-10 -40 -30 -22 -31 7 0 4 -4 -7 -8 -17 -7 -13 -11 25 -21 160 -46 455 40 702
205 l83 56 -87 -83 c-99 -96 -152 -164 -200 -263 -58 -117 -82 -207 -83 -320
l-2 -100 -73 -73 c-74 -73 -95 -89 -227 -165 -113 -67 -214 -152 -320 -270
-114 -127 -128 -145 -120 -154 4 -3 18 2 32 11 26 17 26 17 16 -3 -6 -11 -51
-59 -99 -107 -76 -76 -81 -83 -42 -59 25 15 66 47 91 69 112 101 253 177 434
236 113 37 184 85 247 164 53 66 68 99 117 245 36 108 43 143 53 274 11 143
13 152 47 211 52 89 154 185 248 233 43 23 89 44 103 48 14 4 52 20 85 36 157
73 301 70 595 -12 57 -16 101 -20 185 -19 101 1 280 21 318 36 14 5 15 0 10
-33 -3 -21 -14 -62 -24 -91 -16 -48 -17 -55 -3 -89 15 -35 15 -38 -20 -108
-20 -40 -36 -78 -36 -84 0 -6 -6 -11 -13 -11 -15 0 -37 -55 -37 -94 0 -38 -17
-65 -48 -78 -15 -6 -22 -12 -14 -15 15 -6 15 -17 1 -66 -13 -49 -25 -40 -34
26 -4 28 -12 59 -17 67 -11 18 -6 -23 16 -125 19 -84 19 -171 3 -285 -13 -83
-14 -85 -45 -96 -46 -14 -52 -24 -57 -85 -4 -46 -4 -50 6 -26 6 15 16 27 22
27 7 0 20 14 29 30 29 52 40 38 35 -47 -2 -43 -8 -89 -12 -103 -8 -23 -7 -24
8 -11 15 12 16 10 11 -20 -8 -49 -25 -102 -36 -116 -12 -15 -3 -204 11 -253 6
-19 11 -40 11 -47 0 -48 -626 -778 -948 -1106 -107 -109 -192 -200 -189 -203
3 -3 51 -10 108 -16 115 -11 237 -46 394 -112 55 -24 131 -50 169 -60 64 -16
72 -16 118 0 27 9 52 22 55 30 10 26 87 62 160 74 39 7 76 16 81 19 6 3 45 71
88 150 73 133 83 147 128 174 78 45 173 56 323 37 67 -8 124 -18 126 -20 7
-10 -12 -317 -27 -433 -9 -65 -16 -131 -16 -146 0 -16 -7 -34 -15 -41 -9 -7
-13 -20 -10 -27 11 -30 -16 -99 -45 -116 -21 -13 -34 -34 -50 -81 -11 -35 -41
-102 -65 -150 -25 -48 -45 -92 -45 -99 0 -7 29 -27 65 -45 l65 -32 0 -86 c0
-69 -3 -85 -14 -81 -21 8 -30 -140 -10 -171 13 -20 14 -34 5 -86 -16 -89 -14
-142 5 -161 11 -11 14 -24 10 -43 -4 -15 -9 -47 -11 -72 -3 -25 -7 -59 -9 -75
-2 -17 2 -39 10 -50 16 -22 18 -63 4 -85 -8 -12 -10 -12 -10 -1 0 24 -11 5
-15 -26 -9 -68 -7 -143 3 -156 21 -25 33 -107 22 -143 -9 -25 -8 -42 1 -67 11
-31 8 -40 -51 -161 -51 -105 -74 -141 -124 -191 -104 -104 -141 -167 -153
-256 -4 -34 -2 -37 27 -47 55 -20 202 -35 275 -29 151 13 220 52 261 145 l24
55 55 -7 56 -6 48 48 48 48 6 109 c4 63 3 111 -2 114 -9 6 -22 270 -24 486 0
76 11 214 31 380 17 143 38 325 47 404 8 79 18 148 21 152 3 5 12 9 20 9 26 0
98 58 117 93 17 32 17 34 -7 97 -13 36 -27 91 -31 123 -4 31 -16 68 -26 81
-18 22 -17 24 3 65 17 35 19 46 8 71 -9 21 -9 38 -1 62 27 84 80 352 86 436 6
72 10 92 21 88 7 -3 61 -32 119 -65 68 -39 107 -56 110 -48 30 86 68 287 81
421 8 88 18 188 22 221 l8 60 12 -100 c15 -112 118 -649 131 -680 7 -17 33
-26 127 -49 66 -15 128 -31 139 -35 23 -10 95 -178 120 -281 9 -36 23 -81 31
-101 12 -27 13 -42 6 -56 -8 -15 -7 -27 7 -49 16 -27 17 -43 10 -155 -5 -68
-13 -143 -17 -166 l-9 -41 51 -28 c64 -34 57 -27 65 -65 6 -29 10 -33 40 -33
30 -1 35 -5 48 -41 19 -53 18 -89 -16 -461 -52 -551 -64 -763 -65 -1069 0
-278 1 -295 27 -411 49 -226 117 -373 234 -508 l68 -79 7 214 c7 243 10 270
43 415 18 82 32 119 64 167 57 87 104 131 132 124 17 -5 34 3 63 27 23 18 47
36 54 40 21 13 84 -15 146 -65 43 -35 76 -52 125 -64 98 -26 295 -31 409 -11
141 24 174 49 139 101 -7 11 -19 39 -25 62 -7 23 -24 51 -37 62 -14 10 -78 31
-143 46 -181 42 -176 40 -328 190 -111 109 -138 141 -136 160 2 13 -7 38 -19
54 -19 26 -22 44 -23 116 -1 74 1 83 13 68 12 -17 13 -17 7 2 -3 11 -12 48
-20 82 -16 69 -23 86 -36 78 -5 -3 -14 13 -20 35 -6 23 -14 48 -17 56 -3 8 0
14 6 14 6 0 11 -8 11 -17 0 -9 3 -13 7 -10 8 9 -28 159 -43 174 -17 18 -27 84
-15 96 8 8 11 6 11 -8 0 -10 3 -16 6 -12 9 8 -26 147 -42 172 -8 11 -14 37
-14 59 0 37 1 39 15 20 18 -23 19 -8 4 52 -10 40 -10 47 9 67 11 12 32 47 47
77 15 30 32 58 37 61 5 3 14 42 19 85 6 43 14 81 20 82 5 2 9 14 9 27 0 13 22
51 51 87 40 50 49 67 44 88 -4 14 -56 140 -116 281 l-110 256 10 104 c6 57 12
122 14 145 2 24 13 54 29 75 49 64 110 173 110 194 0 11 -4 32 -7 47 -6 22 1
41 32 90 52 83 56 95 41 134 -11 30 -9 37 25 92 51 83 58 104 45 144 -9 31 -7
40 38 112 l48 78 -26 51 c-45 90 -50 133 -37 303 10 115 10 159 1 178 -8 19
-7 65 5 193 l15 168 42 55 c49 64 112 130 180 186 l50 40 -59 80 c-32 43 -63
84 -68 91 -5 7 -4 19 1 30 5 10 13 58 17 106 6 83 6 89 -13 94 -11 2 -34 24
-51 48 -26 36 -31 53 -31 98 0 53 -16 117 -31 127 -4 3 -3 53 2 110 8 80 18
124 44 185 36 88 72 204 105 335 11 47 26 96 34 110 7 14 19 48 26 75 7 28 27
88 45 135 23 62 32 105 34 159 2 68 0 76 -25 102 l-27 28 27 111 c26 110 26
112 7 138 -10 15 -22 37 -25 50 -5 13 -27 32 -55 47 -27 13 -51 31 -54 40 -9
23 -52 36 -82 25 -22 -8 -27 -6 -36 14 -21 46 -81 40 -99 -10 -6 -14 -10 -42
-10 -63 0 -63 -17 -97 -53 -108 -53 -15 -82 -112 -59 -195 8 -30 7 -42 -8 -66
-16 -26 -17 -39 -9 -106 8 -67 7 -86 -12 -148 -24 -83 -116 -319 -128 -331 -4
-4 -28 8 -52 28 -93 75 -117 93 -202 149 -49 32 -91 66 -94 75 -27 73 -248
314 -301 327 -12 4 -35 3 -50 0 -42 -11 -88 -7 -119 9 -32 17 -61 19 -95 6
-13 -4 -45 -11 -73 -14 -44 -6 -54 -3 -78 18 -24 22 -28 34 -37 121 -6 54 -11
99 -13 100 -1 1 -33 -8 -72 -21 -64 -22 -71 -23 -77 -7 -13 33 -8 65 16 93 16
19 27 48 31 84 5 35 12 55 20 55 49 0 -91 296 -180 383 -19 18 -60 46 -92 62
-49 26 -70 30 -153 32 -88 2 -99 0 -150 -27z m-37 -740 c3 -11 1 -18 -4 -14
-5 3 -9 12 -9 20 0 20 7 17 13 -6z m-760 -736 c21 -5 26 -10 21 -23 -5 -9 -9
-63 -10 -121 l-2 -105 -69 -32 c-101 -46 -213 -81 -343 -105 -94 -18 -142 -21
-265 -18 -82 2 -198 4 -257 4 -59 0 -107 1 -105 2 1 1 52 22 113 46 106 43
198 101 249 158 55 62 202 148 320 187 62 20 83 22 195 18 69 -2 138 -8 153
-11z m1990 -248 c53 -25 131 -65 174 -90 43 -24 102 -54 131 -65 42 -17 204
-102 221 -117 2 -2 -14 -27 -35 -56 l-39 -53 0 -131 c0 -85 -4 -136 -12 -145
-6 -8 -13 -37 -15 -64 l-3 -50 60 -5 c53 -4 60 -8 65 -30 4 -16 14 -26 28 -28
28 -4 29 -40 2 -75 -14 -18 -26 -24 -42 -20 -44 10 -157 134 -225 246 -55 88
-70 106 -85 101 -19 -6 -235 -137 -290 -176 l-27 -19 69 -105 c159 -241 245
-496 252 -749 3 -109 -51 -765 -63 -765 -20 0 -219 701 -248 875 -41 246 -71
455 -87 620 -20 207 -20 568 1 660 7 33 17 92 20 130 7 70 31 155 45 155 4 0
51 -20 103 -44z m-1542 -443 c-13 -65 -25 -170 -28 -233 -5 -121 -15 -173 -65
-335 -27 -90 -45 -124 -181 -335 -197 -308 -277 -422 -277 -397 0 9 52 151 74
200 13 30 48 80 78 111 42 44 54 63 50 81 -3 16 4 31 20 47 91 88 147 208 164
353 7 57 6 59 -10 42 -21 -20 -36 -14 -36 15 0 11 -5 38 -12 59 -14 48 4 124
27 115 23 -8 42 18 65 91 13 38 38 98 57 135 20 37 33 74 29 83 -3 8 7 40 22
70 23 47 28 52 36 35 6 -13 1 -60 -13 -137z m2294 127 c3 -5 -1 -22 -9 -37
-43 -78 -56 -112 -56 -149 0 -51 -28 -74 -90 -74 l-40 0 0 80 c0 66 5 89 27
135 l27 55 67 0 c38 0 71 -4 74 -10z m-3068 -1312 c-3 -8 -6 -5 -6 6 -1 11 2
17 5 13 3 -3 4 -12 1 -19z"/>
</g>
</svg>
